<svg xmlns="http://www.w3.org/2000/svg" width="1400" height="400" viewBox="0 0 1400 400" fill="none">
  <rect width="1400" height="400" fill="#111A1E"/>
  <path d="M0 68H1400M0 332H1400" stroke="#273438"/>
  <rect x="102" y="96" width="530" height="216" rx="5" fill="#17252A" stroke="#405156" stroke-width="2"/>
  <path d="M102 136H632" stroke="#405156" stroke-width="2"/>
  <circle cx="130" cy="116" r="5" fill="#F0A56C"/>
  <circle cx="150" cy="116" r="5" fill="#E9D27D"/>
  <circle cx="170" cy="116" r="5" fill="#68D4B0"/>
  <rect x="130" y="164" width="176" height="116" rx="3" fill="#1D3B36"/>
  <path d="M152 190H278M152 210H256M152 230H274M152 250H236" stroke="#8EE0C2" stroke-width="5"/>
  <rect x="328" y="164" width="276" height="48" rx="3" fill="#263137"/>
  <path d="M350 184H562" stroke="#8ABBD0" stroke-width="5"/>
  <rect x="328" y="228" width="124" height="52" rx="3" fill="#4A3026"/>
  <rect x="468" y="228" width="136" height="52" rx="3" fill="#263137"/>
  <path d="M688 200H800" stroke="#68D4B0" stroke-width="4"/>
  <path d="M782 188L800 200L782 212" stroke="#68D4B0" stroke-width="4"/>
  <rect x="820" y="124" width="176" height="152" rx="4" fill="#1D3B36" stroke="#68D4B0" stroke-width="2"/>
  <path d="M846 162H970M846 184H946M846 206H966M846 228H928" stroke="#8EE0C2" stroke-width="5"/>
  <text x="1054" y="142" fill="#68D4B0" font-family="Manrope, sans-serif" font-size="16">.NET FRAMEWORK 4</text>
  <text x="1054" y="192" fill="#EFF5F1" font-family="Manrope, sans-serif" font-size="34" font-weight="700">WEB APPLICATIONS</text>
  <text x="1054" y="228" fill="#91A5A2" font-family="Manrope, sans-serif" font-size="18">DEVELOPMENT / ASP.NET</text>
  <text x="1054" y="294" fill="#F0A56C" font-family="Manrope, sans-serif" font-size="16">TOPIC ILLUSTRATION</text>
</svg>